<svg height="494" width="720" xmlns="http://www.w3.org/2000/svg">
<rect height="494" fill="#555" width="720"></rect>
<text fill="#7f7" font-family="Courier New" font-size="12" xml:space="preserve">
<tspan x="10" y="26">2018-03-31 16:29:16 +0000</tspan>

<tspan x="10" y="42">[ci skip] [build appSwgg]- npm publish v2018.2.15 - update build</tspan>

<tspan x="10" y="58"></tspan>

<tspan x="10" y="74">2018-04-01 00:26:55 +0800</tspan>

<tspan x="10" y="90">[build appSwgg]- npm publish v2018.2.15 - update build</tspan>

<tspan x="10" y="106">2018-03-31 14:06:12 +0000</tspan>

<tspan x="10" y="122">[ci skip] [build appSwgg]</tspan>

<tspan x="10" y="138"></tspan>

<tspan x="10" y="154">2018-03-31 22:04:30 +0800</tspan>

<tspan x="10" y="170">[build appSwgg]</tspan>

<tspan x="10" y="186">2018-02-15 12:52:56 +0700</tspan>

<tspan x="10" y="202">[build clean]</tspan>

<tspan x="10" y="218"></tspan>

<tspan x="10" y="234">2018-02-15 12:33:47 +0700</tspan>

<tspan x="10" y="250">[npm publish] - npm publish v2018.2.14</tspan>

<tspan x="10" y="266">- fix ascii-diagrams in descriptions</tspan>

<tspan x="10" y="282">- rename package swgg-github-migrations -&gt; swgg-github-migration</tspan>

<tspan x="10" y="298">- revamp documentation with markdown</tspan>

<tspan x="10" y="314"></tspan>

<tspan x="10" y="330">2018-01-24 17:05:22 +0700</tspan>

<tspan x="10" y="346">[npm publish] - npm publish 2018.1.23</tspan>

<tspan x="10" y="362">- add github-migrations-migrations web-apis</tspan>

<tspan x="10" y="378">- add github-migrations-source-imports web-apis</tspan>

<tspan x="10" y="394"></tspan>

<tspan x="10" y="410">2018-01-20 16:35:05 +0700</tspan>

<tspan x="10" y="426">skeleton app</tspan>

<tspan x="10" y="442"></tspan>

<tspan x="10" y="458">2014-03-26 02:31:50 +0700</tspan>

<tspan x="10" y="474">add blank README.md</tspan>

</text>
</svg>
